<svg xmlns="http://www.w3.org/2000/svg" viewBox="0 0 880 480" width="880" height="480">
  <defs>
    <linearGradient id="win" x1="0%" y1="0%" x2="0%" y2="100%">
      <stop offset="0%" style="stop-color:#1a1d26"/>
      <stop offset="100%" style="stop-color:#0a0b0f"/>
    </linearGradient>
    <linearGradient id="bar" x1="0%" y1="0%" x2="0%" y2="100%">
      <stop offset="0%" style="stop-color:#4f7cff;stop-opacity:0.9"/>
      <stop offset="100%" style="stop-color:#4f7cff;stop-opacity:0.25"/>
    </linearGradient>
  </defs>
  <rect width="880" height="480" fill="#0a0b0f"/>
  <text x="440" y="32" fill="#e9ebf0" font-family="system-ui,Segoe UI,sans-serif" font-size="16" font-weight="600" text-anchor="middle">Product flow (illustrative - not a real screenshot)</text>
  <text x="440" y="52" fill="#8b92a1" font-family="system-ui,sans-serif" font-size="11" text-anchor="middle">Single-page layout: scroll to explore</text>

  <rect x="48" y="72" width="784" height="380" rx="12" fill="url(#win)" stroke="#1e222d" stroke-width="1"/>
  <rect x="48" y="72" width="784" height="28" rx="12" fill="#12141a"/>
  <rect x="48" y="92" width="784" height="8" fill="#12141a"/>
  <circle cx="68" cy="86" r="4" fill="#f87171"/><circle cx="84" cy="86" r="4" fill="#fbbf24"/><circle cx="100" cy="86" r="4" fill="#34d399"/>
  <text x="440" y="90" fill="#8b92a1" font-family="system-ui,sans-serif" font-size="10" text-anchor="middle">localhost - Runway</text>

  <text x="72" y="128" fill="#4f7cff" font-family="system-ui,sans-serif" font-size="9" font-weight="600">FOR US SEED &amp; SERIES A</text>
  <text x="72" y="158" fill="#e9ebf0" font-family="system-ui,sans-serif" font-size="15" font-weight="700">Financial anxiety is a tax on building.</text>
  <text x="72" y="182" fill="#8b92a1" font-family="system-ui,sans-serif" font-size="10">Remove it.</text>
  <rect x="72" y="198" width="120" height="28" rx="14" fill="#4f7cff"/>
  <text x="132" y="216" fill="#fff" font-family="system-ui,sans-serif" font-size="10" font-weight="600" text-anchor="middle">Try simulator</text>

  <rect x="400" y="118" width="200" height="300" rx="8" fill="#12141a" stroke="#1e222d"/>
  <text x="500" y="142" fill="#8b92a1" font-family="system-ui,sans-serif" font-size="9" text-anchor="middle">RUNWAY MODEL</text>
  <text x="500" y="162" fill="#e9ebf0" font-family="system-ui,sans-serif" font-size="11" font-weight="600" text-anchor="middle">USD sliders</text>
  <rect x="420" y="178" width="160" height="4" rx="2" fill="#1e222d"/>
  <rect x="420" y="178" width="90" height="4" rx="2" fill="#4f7cff"/>
  <rect x="420" y="198" width="160" height="4" rx="2" fill="#1e222d"/>
  <rect x="420" y="198" width="110" height="4" rx="2" fill="#4f7cff"/>
  <text x="500" y="230" fill="#8b92a1" font-family="system-ui,sans-serif" font-size="9" text-anchor="middle">sample.csv, Apply</text>
  <rect x="420" y="242" width="36" height="90" rx="4" fill="url(#bar)"/>
  <rect x="462" y="262" width="36" height="70" rx="4" fill="url(#bar)"/>
  <rect x="504" y="228" width="36" height="104" rx="4" fill="url(#bar)"/>
  <rect x="546" y="252" width="36" height="80" rx="4" fill="url(#bar)"/>
  <text x="500" y="360" fill="#4f7cff" font-family="system-ui,sans-serif" font-size="11" font-weight="600" text-anchor="middle">12-mo cash</text>

  <rect x="640" y="118" width="176" height="120" rx="8" fill="rgba(248,113,113,0.08)" stroke="rgba(248,113,113,0.4)"/>
  <text x="728" y="142" fill="#f87171" font-family="system-ui,sans-serif" font-size="9" font-weight="600" text-anchor="middle">CRISIS PLAYBOOK</text>
  <text x="652" y="168" fill="#e9ebf0" font-family="system-ui,sans-serif" font-size="9">- Freeze non-essential spend</text>
  <text x="652" y="186" fill="#e9ebf0" font-family="system-ui,sans-serif" font-size="9">- Single-thread fundraising</text>
  <text x="652" y="214" fill="#8b92a1" font-family="system-ui,sans-serif" font-size="8">Insight updates with runway</text>

  <text x="440" y="468" fill="#8b92a1" font-family="system-ui,sans-serif" font-size="10" text-anchor="middle">Swap for real PNG/WebP screenshots in docs/images/ when ready - see README.</text>
</svg>
